<?xml version="1.0" encoding="utf-8"?>
<!-- Svg Vector Icons : http://www.onlinewebfonts.com/icon -->
<!DOCTYPE svg PUBLIC "-//W3C//DTD SVG 1.1//EN" "http://www.w3.org/Graphics/SVG/1.1/DTD/svg11.dtd">
<svg version="1.1" xmlns="http://www.w3.org/2000/svg" xmlns:xlink="http://www.w3.org/1999/xlink" x="0px" y="0px" viewBox="0 0 256 256" enable-background="new 0 0 256 256" xml:space="preserve">
<metadata> Svg Vector Icons : http://www.onlinewebfonts.com/icon </metadata>
<g><g><path fill="#000000" d="M241.9,73.2c-5.5-4.9-14.4-4.9-19.9,0l-94,82.1L34,72.4c-5.5-4.9-14.4-4.9-19.9,0s-5.5,12.9,0,17.8l104.4,93.3c1.3,1.2,2.9,2.1,4.6,2.7c0.1,0,0.1,0,0.2,0c1.6,0.6,3.3,0.9,5.1,0.9c1.8,0,3.5-0.3,5.1-0.9c0.1,0,0.1,0,0.2,0c1.7-0.7,3.3-1.6,4.6-2.7L241.9,91C247.4,86.1,247.4,78.1,241.9,73.2z"/></g></g>
</svg>