<?xml version="1.0" encoding="utf-8"?>
<!-- Generator: Adobe Illustrator 24.1.1, SVG Export Plug-In . SVG Version: 6.00 Build 0)  -->
<svg version="1.1" id="Layer_1" xmlns="http://www.w3.org/2000/svg" xmlns:xlink="http://www.w3.org/1999/xlink" x="0px" y="0px"
	 viewBox="0 0 512 512" style="enable-background:new 0 0 512 512;" xml:space="preserve">
<g>
	<path d="M73.1,365.7c9.8,0,18.3,3.7,25.6,11c7.3,7.3,11,15.8,11,25.6c0,9.8-3.7,18.3-11,25.6c-7.3,7.3-15.8,11-25.6,11H36.6
		c-9.8,0-18.3-3.7-25.6-11C3.7,420.6,0,412,0,402.3c0-9.8,3.4-18.3,10.2-25.6c6.8-7.3,15.6-11,26.3-11H73.1 M73.1,219.4
		c9.8,0,18.3,3.7,25.6,11s11,15.8,11,25.6s-3.7,18.3-11,25.6c-7.3,7.3-15.8,11-25.6,11H36.6c-9.8,0-18.3-3.7-25.6-11
		C3.7,274.3,0,265.8,0,256s3.4-18.3,10.2-25.6s15.6-11,26.3-11H73.1 M73.1,73.1c9.8,0,18.3,3.7,25.6,11s11,15.8,11,25.6
		s-3.7,18.3-11,25.6s-15.8,11-25.6,11H36.6c-9.8,0-18.3-3.7-25.6-11S0,119.5,0,109.7s3.4-18.3,10.2-25.6s15.6-11,26.3-11H73.1
		 M219.4,146.3c-9.8,0-18.3-3.7-25.6-11s-11-15.8-11-25.6s3.7-18.3,11-25.6s15.8-11,25.6-11h256c10.7,0,19.5,3.7,26.3,11
		c6.8,7.3,10.2,15.8,10.2,25.6s-3.7,18.3-11,25.6c-7.3,7.3-15.8,11-25.6,11H219.4 M475.4,219.4c10.7,0,19.5,3.7,26.3,11
		c6.8,7.3,10.2,15.8,10.2,25.6s-3.7,18.3-11,25.6c-7.3,7.3-15.8,11-25.6,11h-256c-9.8,0-18.3-3.7-25.6-11c-7.3-7.3-11-15.8-11-25.6
		s3.7-18.3,11-25.6s15.8-11,25.6-11H475.4 M475.4,365.7c10.7,0,19.5,3.7,26.3,11c6.8,7.3,10.2,15.8,10.2,25.6
		c0,9.8-3.7,18.3-11,25.6c-7.3,7.3-15.8,11-25.6,11h-256c-9.8,0-18.3-3.7-25.6-11c-7.3-7.3-11-15.8-11-25.6c0-9.8,3.7-18.3,11-25.6
		c7.3-7.3,15.8-11,25.6-11H475.4"/>
</g>
</svg>
